<svg width="226" height="54" viewBox="0 0 226 54" fill="none" xmlns="http://www.w3.org/2000/svg">
<path fill-rule="evenodd" clip-rule="evenodd" d="M50.4451 0.282649C47.1199 1.32377 45.3363 5.42313 46.8403 8.56763C49.6345 14.4095 58.5094 12.4846 58.4658 6.04617C58.4384 1.98135 54.3661 -0.944794 50.4451 0.282649ZM169.244 10.9562V13.1496L167.365 13.1251C163.826 13.079 162.464 14.181 161.932 17.5215C161.093 22.793 163.55 25.7387 167.776 24.5259C168.763 24.2424 169.255 24.1823 169.309 24.3387C169.401 24.6083 171.91 24.6571 172.18 24.3946C172.366 24.2131 172.459 11.7913 172.289 9.86207L172.192 8.76296H170.718H169.244V10.9562ZM117.18 9.14524C116.827 9.70233 116.38 14.2709 116.662 14.445C117.002 14.6554 117.868 14.6523 118.426 14.4388C118.84 14.2807 120.433 9.47832 120.16 9.21244C119.926 8.98425 117.32 8.92563 117.18 9.14524ZM90.3621 9.39332C89.8268 9.71782 89.7791 24.0364 90.3118 24.4675C91.002 25.0256 97.9032 24.6305 99.3277 23.9512C104.023 21.7121 103.828 11.5828 99.056 9.79361C97.6257 9.25745 91.0834 8.95619 90.3621 9.39332ZM127.626 9.35585C127.414 9.48711 127.367 11.1674 127.411 17.0465L127.467 24.5692H132.085H136.703L136.767 23.2607L136.831 21.9523H133.706H130.582V15.694C130.582 10.1805 130.541 9.42075 130.242 9.30875C129.753 9.12577 127.945 9.15822 127.626 9.35585ZM97.4569 12.2234C98.7967 12.7459 99.0979 13.4749 99.1848 16.4044C99.3165 20.8496 98.5068 21.9523 95.1094 21.9523H93.2081V17.0674C93.2081 14.3806 93.2725 12.1195 93.3513 12.0429C93.6301 11.771 96.6359 11.9033 97.4569 12.2234ZM44.0209 12.823C36.6371 15.9518 34.0248 19.2476 31.8017 28.2398C30.365 34.0513 30.3912 33.9064 30.7346 34.1134C31.2443 34.4204 51.2293 34.3557 51.4793 34.046C51.7745 33.6805 53.6865 25.6377 53.6865 24.7618C53.6865 24.5131 52.8248 24.4645 48.4098 24.4645C43.488 24.4645 43.1396 24.4398 43.2359 24.0982C43.2924 23.8965 43.6474 22.4129 44.0246 20.8008C44.4018 19.1888 44.9901 16.7685 45.3322 15.4221C45.9652 12.9306 46.0812 12.1017 45.793 12.1264C45.7045 12.1342 44.9069 12.4476 44.0209 12.823ZM56.729 12.5554C56.6242 12.8301 56.1792 14.5621 55.7399 16.4044C55.3009 18.2467 54.6975 20.7728 54.3994 22.018C54.1013 23.2632 53.8914 24.3044 53.9329 24.3316C53.9746 24.359 54.5861 24.4936 55.2919 24.6312C65.1976 26.5589 65.0473 39.6228 55.0827 42.8213L53.3643 43.3728L43.484 43.5103C30.7082 43.6883 28.2258 43.6719 28.2662 43.4111C28.2841 43.2959 28.7005 41.506 29.1915 39.4333C29.6828 37.3607 30.1031 35.3352 30.1257 34.9322L30.1669 34.1995L26.5692 34.1421C24.5903 34.1105 22.9714 34.0444 22.9714 33.995C22.9714 33.9135 24.4829 27.5571 25.9214 21.5899C26.5468 18.9945 26.5245 18.8436 25.5854 19.3169C21.3515 21.4511 14.8433 29.4074 12.2295 35.6451C11.4019 37.6197 9.82749 43.2538 10.0154 43.5681C10.067 43.6543 14.1147 43.7251 19.0105 43.7251C25.6546 43.7251 27.9116 43.7871 27.9116 43.9696C27.9116 44.2343 26.5193 49.7105 26.1907 50.7385C26.0801 51.0839 25.85 51.959 25.6791 52.6832L25.3683 54L39.9034 53.9276C56.0625 53.847 55.6785 53.8773 59.5933 52.3727C74.8572 46.5053 78.9823 30.4745 68.3666 18.2779C64.8829 14.2755 57.4653 10.6281 56.729 12.5554ZM108.888 13.1108C105.35 13.6141 103.91 15.9706 104.402 20.4543C104.768 23.7979 106.083 24.7943 110.069 24.7499C113.952 24.7067 114.349 24.5797 114.43 23.357L114.496 22.371H111.575C108.272 22.371 107.599 22.0894 107.599 20.7056V20.0681H111.042C114.989 20.0681 114.797 20.17 114.791 18.0792C114.781 14.7057 112.308 12.6245 108.888 13.1108ZM141.821 13.1665C139.03 13.7113 137.761 15.6214 137.793 19.2307C137.836 24.09 140.587 25.6888 146.906 24.5261L147.872 24.3483V23.4119V22.4757L144.899 22.371C141.801 22.2619 141.106 22.0117 141.106 21.0041C141.106 20.8536 141.048 20.5814 140.976 20.3993C140.861 20.1056 141.247 20.0681 144.4 20.0681C148.478 20.0681 148.264 20.1786 148.242 18.079C148.203 14.4283 145.592 12.4302 141.821 13.1665ZM151.467 13.3813C150.276 13.6101 150.128 13.7131 150.128 14.3096C150.128 15.3677 150.51 15.9237 151.149 15.7933C152.554 15.5063 155.693 15.5632 156.004 15.8816C157.089 16.992 156.607 17.5004 154.217 17.7641C150.608 18.1628 149.697 18.889 149.699 21.3661C149.701 24.3425 151.786 25.4472 155.581 24.4832C156.879 24.1534 157.136 24.1434 157.667 24.4017C158.026 24.5765 158.735 24.6705 159.409 24.6328L160.545 24.5692L160.614 23.7439C160.669 23.0851 160.585 22.8471 160.198 22.5621C159.735 22.2215 159.711 22.0572 159.663 18.9374C159.579 13.4732 157.682 12.1869 151.467 13.3813ZM110.813 15.6672C111.217 15.8783 111.68 16.9029 111.68 17.587C111.68 17.9369 111.482 17.9745 109.64 17.9745H107.599V17.2324C107.599 15.8199 109.412 14.9368 110.813 15.6672ZM144.479 15.9333C144.721 16.1923 144.984 16.7578 145.063 17.1895L145.207 17.9745H143.049C141.863 17.9745 140.892 17.9038 140.893 17.8175C140.908 15.8561 143.254 14.6234 144.479 15.9333ZM169.196 18.732L169.255 21.6874L168.659 21.9228C166.132 22.9193 165.106 21.9847 165.207 18.776C165.292 16.0554 165.647 15.625 167.733 15.7154L169.137 15.7763L169.196 18.732ZM156.392 20.8885L156.32 22.1283L155.261 22.3762C153.927 22.6879 153.18 22.5131 152.912 21.8273C152.37 20.4368 153.252 19.7302 155.605 19.6705L156.464 19.6485L156.392 20.8885ZM212.948 29.3228C212.889 29.4729 212.867 33.0338 212.898 37.236L212.954 44.8766L214.387 44.9381L215.82 44.9997L215.954 43.8913C216.028 43.2817 216.011 39.7212 215.917 35.979L215.746 29.175L214.401 29.1126C213.446 29.0682 213.025 29.1294 212.948 29.3228ZM169.98 29.5583C169.916 29.7222 169.893 30.3153 169.929 30.8764L169.996 31.8966H171.499H173.003V30.6405V29.3843L171.55 29.3224C170.448 29.2753 170.069 29.3322 169.98 29.5583ZM90.5743 29.6391L89.9808 29.7266L90.0373 37.3017L90.0936 44.8766L91.6508 44.9381L93.2081 44.9997L93.2366 43.7867C93.297 41.2325 93.1585 29.7955 93.0657 29.646C92.9658 29.4857 91.6405 29.4821 90.5743 29.6391ZM109.103 32.1876C109.103 33.6254 109.093 33.6493 108.512 33.7146C107.953 33.7772 107.918 33.8451 107.857 34.9846L107.792 36.1884H108.426H109.059L109.135 39.695C109.245 44.823 110.588 46.1073 114.687 45.0043C116.117 44.6197 115.402 42.469 113.845 42.469C112.369 42.469 112.324 42.3689 112.324 39.0871V36.2074L113.774 36.1456L115.224 36.0837L115.294 35.3744C115.442 33.8662 115.266 33.6761 113.726 33.6761H112.344L112.281 32.263L112.217 30.8498L110.66 30.7883L109.103 30.7267V32.1876ZM162.308 30.8762C162.224 30.9576 162.156 31.6146 162.156 32.3362C162.156 33.6118 162.14 33.6501 161.565 33.7146C161.006 33.7772 160.971 33.8451 160.91 34.9846L160.846 36.1884H161.476H162.106L162.196 39.695C162.321 44.5709 162.738 45.1906 165.894 45.1906C168.111 45.1906 168.421 44.9988 168.342 43.6738L168.278 42.5737L167.033 42.5106C165.44 42.4298 165.345 42.2123 165.425 38.8277L165.485 36.293L166.881 36.1884L168.278 36.0837L168.347 35.3744C168.495 33.8662 168.319 33.6761 166.78 33.6761H165.397L165.334 32.263L165.27 30.8498L163.865 30.7889C163.092 30.7554 162.392 30.7948 162.308 30.8762ZM100.296 33.7946C99.5872 34.0144 99.2126 34.0354 98.8904 33.8729C98.6487 33.7511 97.9238 33.6803 97.2794 33.7161L96.1077 33.7808L95.9679 35.5603C95.7819 37.9283 95.7514 43.5059 95.9198 44.327L96.0541 44.9812H97.509H98.9638L99.1039 43.5681C99.181 42.7908 99.1936 40.9629 99.1322 39.5062C99.0053 36.5009 99.0169 36.4745 100.571 36.2669C102.873 35.9593 103.087 36.3684 103.092 41.087C103.096 45.1209 103.051 45.0212 104.826 44.9398L106.203 44.8766V40.4801C106.203 33.9374 104.833 32.3871 100.296 33.7946ZM119.52 33.7814C117.367 34.5238 116.27 36.772 116.463 40.0488C116.705 44.1627 118.261 45.375 122.957 45.1077C126.541 44.9036 126.501 44.9199 126.501 43.7006V42.6783H123.625C120.344 42.6783 119.923 42.5159 119.701 41.1658L119.573 40.3859L123.198 40.3283L126.823 40.2708L126.887 38.8371C127.071 34.7051 123.65 32.3572 119.52 33.7814ZM133.439 34.1756L132.108 34.8749L132.043 34.3278C131.98 33.7961 131.936 33.7808 130.474 33.7808H128.971L128.914 39.3902L128.856 44.9997L130.417 44.9381L131.978 44.8766L132.036 41.1829L132.095 37.4893L133.325 37.0298C134.002 36.7771 134.773 36.4863 135.039 36.3839C135.471 36.217 135.522 36.0531 135.522 34.832C135.522 33.1871 135.396 33.1473 133.439 34.1756ZM141.281 33.8702C140.449 34.1869 140.254 34.2035 140.16 33.965C140.078 33.7571 139.621 33.6761 138.532 33.6761H137.018L137.076 39.2763L137.133 44.8766H138.636H140.14L140.198 40.7609L140.256 36.645L140.928 36.4168C143.732 35.464 144.195 36.1151 144.298 41.1505L144.375 44.9812H145.833C147.63 44.9812 147.55 45.1537 147.55 41.2652C147.55 34.3222 145.73 32.1746 141.281 33.8702ZM151.243 33.7081C149.966 33.947 149.597 34.4304 149.888 35.4881L150.052 36.0837L152.533 36.01C155.511 35.9212 155.927 36.0669 155.927 37.1979V37.9834L153.708 38.2107C150.173 38.5729 149.176 39.3245 149.171 41.6332C149.164 44.5619 152.465 46.113 155.746 44.7235C156.437 44.431 156.585 44.4277 156.977 44.6955C157.745 45.2193 159.589 45.3277 159.933 44.8694C160.414 44.2271 160.298 43.1931 159.7 42.8115C159.187 42.4836 159.177 42.4175 159.11 39.0337C159.005 33.7726 157.251 32.5847 151.243 33.7081ZM178.121 33.8093C174.214 35.159 173.928 42.9917 177.724 44.7009C182.887 47.0252 187.295 42.7242 185.687 36.9324C184.882 34.0324 181.508 32.6396 178.121 33.8093ZM192.656 33.7506C192.243 33.9089 191.748 34.1036 191.556 34.1832C191.336 34.2751 191.161 34.2089 191.08 34.0021C190.893 33.5281 188.248 33.5325 188.061 34.0073C187.889 34.4444 187.892 43.4856 188.065 44.327C188.781 47.8142 191.153 44.8418 191.153 40.4577V36.5966L191.704 36.3925C194.507 35.3537 195.1 36.1232 195.234 40.9725L195.341 44.8766L196.785 44.9383C198.593 45.0158 198.539 45.1717 198.419 40.1967C198.276 34.3249 196.462 32.2946 192.656 33.7506ZM202.13 33.7433C200.753 34.0375 200.446 34.398 200.735 35.3805L200.942 36.0837L203.511 36.0154C206.293 35.9415 206.675 36.0556 206.905 37.0274C207.101 37.8544 206.864 37.9748 204.557 38.2178C201.129 38.579 200.175 39.3448 200.175 41.7362C200.175 44.613 202.469 45.8371 206.077 44.8853C207.373 44.5435 207.516 44.5426 208.397 44.8705C208.914 45.0629 209.715 45.19 210.179 45.1531L211.021 45.0859L211.084 44.0391C211.139 43.1186 211.087 42.967 210.654 42.783C210.176 42.5797 210.159 42.4728 210.054 39.1193C209.888 33.7613 208.01 32.4874 202.13 33.7433ZM169.989 33.9317C169.929 34.0829 169.907 36.6075 169.938 39.5416L169.996 44.8766L171.439 44.9383C173.252 45.016 173.14 45.4301 173.063 38.91L173.003 33.7808L171.55 33.7188C170.501 33.674 170.067 33.7333 169.989 33.9317ZM123.054 36.1381C123.345 36.368 123.567 36.8405 123.643 37.3942L123.765 38.2819H122.036C121.085 38.2819 120.154 38.3391 119.967 38.409C119.695 38.5107 119.627 38.382 119.627 37.7648C119.627 36.157 121.782 35.1343 123.054 36.1381ZM181.861 36.2991C182.438 36.6931 182.774 37.8077 182.774 39.3287C182.774 43.3468 178.849 44.3337 178.396 40.4297C177.982 36.8593 179.693 34.8194 181.861 36.2991ZM155.927 41.203V42.4493L155.122 42.6672C153.803 43.0244 152.985 42.9446 152.61 42.4223C151.86 41.3782 152.384 40.3817 153.802 40.1579C155.96 39.8175 155.927 39.8014 155.927 41.203ZM206.867 41.2076C206.744 43.342 203.39 43.762 203.399 41.642C203.405 40.3909 203.949 40.0794 206.296 39.9825L206.94 39.9559L206.867 41.2076Z" fill="#BD0074"/>
</svg>
